<svg width="153" height="123" fill="none" xmlns="http://www.w3.org/2000/svg"><g filter="url(#filter0_d)"><path d="M123.232 88.674c0-2.223-.494-4.055-1.482-5.496-1.03-1.482-2.512-3.087-4.446-4.816-1.482-1.318-2.573-2.45-3.273-3.396a5.42 5.42 0 01-1.112-3.335c0-1.729.7-3.129 2.1-4.199 1.399-1.07 3.273-1.606 5.619-1.606 4.446 0 7.801 1.585 10.065 4.755l5.99-3.89c-1.77-2.429-4.055-4.281-6.854-5.558-2.8-1.317-6.093-1.976-9.88-1.976-4.611 0-8.275 1.01-10.992 3.026-2.758 1.976-4.137 4.714-4.137 8.213 0 1.688.288 3.17.865 4.446.535 1.276 1.193 2.367 1.976 3.273.782.864 1.811 1.873 3.087 3.026 1.564 1.4 2.738 2.634 3.52 3.704.741 1.07 1.111 2.347 1.111 3.829h7.843zm-3.952 14.758c1.44 0 2.634-.453 3.581-1.358.906-.947 1.359-2.1 1.359-3.458 0-1.359-.453-2.49-1.359-3.397-.947-.905-2.141-1.358-3.581-1.358-1.4 0-2.553.453-3.458 1.358-.947.906-1.421 2.038-1.421 3.397 0 1.358.474 2.511 1.421 3.458.905.905 2.058 1.358 3.458 1.358z" fill="#D07AF0"/></g><g filter="url(#filter1_d)"><path d="M67.043 58.527c0-2.867.637-5.229 1.911-7.087 1.328-1.91 3.239-3.98 5.734-6.21 1.91-1.699 3.317-3.159 4.22-4.38a6.987 6.987 0 001.433-4.3c0-2.229-.902-4.034-2.707-5.414-1.805-1.38-4.22-2.07-7.246-2.07-5.733 0-10.06 2.044-12.98 6.13l-7.723-5.015c2.283-3.132 5.229-5.521 8.839-7.167 3.61-1.698 7.856-2.548 12.74-2.548 5.945 0 10.67 1.3 14.173 3.902 3.556 2.548 5.335 6.078 5.335 10.59 0 2.176-.372 4.087-1.115 5.733-.69 1.646-1.54 3.052-2.548 4.22-1.009 1.115-2.336 2.415-3.981 3.902-2.017 1.805-3.53 3.397-4.539 4.777-.955 1.38-1.433 3.026-1.433 4.937H67.043zm5.096 19.03c-1.857 0-3.397-.584-4.618-1.751-1.168-1.221-1.752-2.708-1.752-4.46 0-1.751.584-3.21 1.752-4.379 1.221-1.168 2.76-1.751 4.618-1.751 1.805 0 3.292.583 4.46 1.751 1.22 1.168 1.83 2.628 1.83 4.38 0 1.751-.61 3.238-1.83 4.459-1.168 1.168-2.655 1.751-4.46 1.751z" fill="#944ED5"/></g><g filter="url(#filter2_d)"><path d="M29.91 96.386c0-1.491.332-2.72.995-3.687.69-.995 1.685-2.072 2.983-3.233.995-.884 1.727-1.643 2.197-2.279a3.637 3.637 0 00.745-2.237c0-1.16-.47-2.1-1.408-2.818-.94-.718-2.197-1.077-3.771-1.077-2.984 0-5.235 1.063-6.755 3.19l-4.019-2.61c1.188-1.63 2.721-2.873 4.6-3.73 1.878-.884 4.088-1.326 6.63-1.326 3.094 0 5.552.677 7.376 2.03 1.85 1.327 2.776 3.164 2.776 5.512 0 1.133-.194 2.127-.58 2.984-.36.856-.802 1.588-1.326 2.196-.525.58-1.216 1.257-2.072 2.03-1.05.94-1.837 1.768-2.362 2.486-.497.719-.746 1.575-.746 2.57H29.91zm2.652 9.904c-.966 0-1.768-.304-2.403-.912-.608-.635-.912-1.408-.912-2.32 0-.912.304-1.671.912-2.279.635-.608 1.437-.912 2.403-.912.94 0 1.713.304 2.32.912.636.608.954 1.367.954 2.279 0 .912-.318 1.685-.953 2.32-.608.608-1.381.912-2.32.912z" fill="#BB6BD9"/></g><path opacity=".5" d="M135.531 23.22c-9.6-11.6-34.333-8.834-45.5-6-10 0-15.5-4.001-20.5-7.501s-39.5-20-60.5 0 0 40.5 9 46.5c7.2 4.8 6 9.667 4.5 11.5-2.333 3.5-6.5 12.3-4.5 19.5 2.5 9 24.5 11.5 28 10s37.5-4 55.5-1.5 30.5-23 34-30 12-28 0-42.5z" fill="#E8DDF1"/><defs><filter id="filter0_d" x="88.83" y="43.157" width="63.863" height="76.275" filterUnits="userSpaceOnUse" color-interpolation-filters="sRGB"><feFlood flood-opacity="0" result="BackgroundImageFix"/><feColorMatrix in="SourceAlpha" values="0 0 0 0 0 0 0 0 0 0 0 0 0 0 0 0 0 0 127 0"/><feOffset/><feGaussianBlur stdDeviation="8"/><feColorMatrix values="0 0 0 0 0.227451 0 0 0 0 0.160784 0 0 0 0 0.278431 0 0 0 0.35 0"/><feBlend in2="BackgroundImageFix" result="effect1_dropShadow"/><feBlend in="SourceGraphic" in2="effect1_dropShadow" result="shape"/></filter><filter id="filter1_d" x="33.685" y="4.466" width="73.087" height="89.091" filterUnits="userSpaceOnUse" color-interpolation-filters="sRGB"><feFlood flood-opacity="0" result="BackgroundImageFix"/><feColorMatrix in="SourceAlpha" values="0 0 0 0 0 0 0 0 0 0 0 0 0 0 0 0 0 0 127 0"/><feOffset/><feGaussianBlur stdDeviation="8"/><feColorMatrix values="0 0 0 0 0.227451 0 0 0 0 0.160784 0 0 0 0 0.278431 0 0 0 0.35 0"/><feBlend in2="BackgroundImageFix" result="effect1_dropShadow"/><feBlend in="SourceGraphic" in2="effect1_dropShadow" result="shape"/></filter><filter id="filter2_d" x="4.877" y="60.579" width="53.382" height="61.711" filterUnits="userSpaceOnUse" color-interpolation-filters="sRGB"><feFlood flood-opacity="0" result="BackgroundImageFix"/><feColorMatrix in="SourceAlpha" values="0 0 0 0 0 0 0 0 0 0 0 0 0 0 0 0 0 0 127 0"/><feOffset/><feGaussianBlur stdDeviation="8"/><feColorMatrix values="0 0 0 0 0.227451 0 0 0 0 0.160784 0 0 0 0 0.278431 0 0 0 0.35 0"/><feBlend in2="BackgroundImageFix" result="effect1_dropShadow"/><feBlend in="SourceGraphic" in2="effect1_dropShadow" result="shape"/></filter></defs></svg>